# xmcd
#
# Track frame offsets:
#	150
#	10154
#	18996
#	29537
#	40801
#	54343
#	64012
#	75527
#	86838
#	97833
#	110425
#	122032
#
# Disc length: 1767 seconds
# Revision: 0
# Processed by: cddbd v1.5PL3 Copyright (c) Steve Scherf et al.
# Submitted via: cdrLabel 7.0
#
DISCID=8a06e50c
DTITLE=Kitty Wells and Red Foley - Together Again
DYEAR=1900
DGENRE=
TTITLE0=Hello Number One
TTITLE1=Together Again
TTITLE2=My Wall Came Tumblin' Down
TTITLE3=We Need One More Chance
TTITLE4=Loved And Wanted
TTITLE5=Ashes Of Love
TTITLE6=Happiness Means You
TTITLE7=Living As Strangers
TTITLE8=Looking Over Our Shoulder
TTITLE9=We Made A Mistake
TTITLE10=Have I Told You Lately That I Love You
TTITLE11=My Happiness
EXTD=
EXTT0=
EXTT1=
EXTT2=
EXTT3=
EXTT4=
EXTT5=
EXTT6=
EXTT7=
EXTT8=
EXTT9=
EXTT10=
EXTT11=
PLAYORDER=
